HIERARCHY
ROOT Hips
{
	OFFSET -2.235441 104.804031 3.163491
	CHANNELS 6 Xposition Yposition Zposition Xrotation Yrotation Zrotation
	JOINT Chest
	{
		OFFSET -6.193823 12.130821 -0.796191
		CHANNELS 3 Xrotation Yrotation Zrotation
		JOINT Chest2
		{
			OFFSET -5.580397 20.464851 -3.019236
			CHANNELS 3 Xrotation Yrotation Zrotation
			JOINT Chest3
			{
				OFFSET 3.114478 14.416428 -2.299250
				CHANNELS 3 Xrotation Yrotation Zrotation
				JOINT Neck
				{
					OFFSET 0.829348 17.243851 -0.760051
					CHANNELS 3 Xrotation Yrotation Zrotation
					JOINT Head
					{
						OFFSET 1.552681 10.338165 -0.734241
						CHANNELS 3 Xrotation Yrotation Zrotation
						End Site
						{
							OFFSET 1.624927 10.327057 -0.734277
						}
					}
				}
				JOINT LeftCollar
				{
					OFFSET -1.740152 13.542831 3.920211
					CHANNELS 3 Xrotation Yrotation Zrotation
					JOINT LeftUpArm
					{
						OFFSET 13.312329 2.926651 11.077728
						CHANNELS 3 Xrotation Yrotation Zrotation
						JOINT LeftLowArm
						{
							OFFSET 5.749687 21.841446 25.092239
							CHANNELS 3 Xrotation Yrotation Zrotation
							JOINT LeftHand
							{
								OFFSET 14.731552 24.176743 9.970612
								CHANNELS 3 Xrotation Yrotation Zrotation
								End Site
								{
									OFFSET 3.219681 5.283966 2.179146
								}
							}
						}
					}
				}
				JOINT RightCollar
				{
					OFFSET -2.709616 13.221375 -4.434183
					CHANNELS 3 Xrotation Yrotation Zrotation
					JOINT RightUpArm
					{
						OFFSET 11.321449 2.737305 -13.146418
						CHANNELS 3 Xrotation Yrotation Zrotation
						JOINT RightLowArm
						{
							OFFSET 4.508937 23.780701 -23.534693
							CHANNELS 3 Xrotation Yrotation Zrotation
							JOINT RightHand
							{
								OFFSET 14.784779 23.860367 -10.632393
								CHANNELS 3 Xrotation Yrotation Zrotation
								End Site
								{
									OFFSET 3.231369 5.214920 -2.323818
								}
							}
						}
					}
				}
			}
		}
	}
	JOINT LeftUpLeg
	{
		OFFSET 0.759048 1.039589 9.937921
		CHANNELS 3 Xrotation Yrotation Zrotation
		JOINT LeftLowLeg
		{
			OFFSET 36.456814 -24.522659 17.706778
			CHANNELS 3 Xrotation Yrotation Zrotation
			JOINT LeftFoot
			{
				OFFSET 40.194851 19.154495 -4.248346
				CHANNELS 3 Xrotation Yrotation Zrotation
				JOINT LeftToe
				{
					OFFSET 23.431808 3.025635 -1.164291
					CHANNELS 3 Xrotation Yrotation Zrotation
					End Site
					{
						OFFSET 20.143188 -10.590546 6.453777
					}
				}
			}
		}
	}
	JOINT RightUpLeg
	{
		OFFSET -0.758958 -1.039764 -9.937912
		CHANNELS 3 Xrotation Yrotation Zrotation
		JOINT RightLowLeg
		{
			OFFSET -6.657955 -46.574608 -5.521642
			CHANNELS 3 Xrotation Yrotation Zrotation
			JOINT RightFoot
			{
				OFFSET 15.489738 -41.938965 1.330385
				CHANNELS 3 Xrotation Yrotation Zrotation
				JOINT RightToe
				{
					OFFSET -14.884882 -16.909721 -7.215136
					CHANNELS 3 Xrotation Yrotation Zrotation
					End Site
					{
						OFFSET -21.580368 -2.594293 -9.333464
					}
				}
			}
		}
	}
}
MOTION
Frames: 16
Frame Time: 0.033333
-0.161346 106.130424 -1.111723 28.722769 82.619321 -53.873756 4.775119 -0.859286 6.479053 -0.510669 3.206328 22.282220 -6.571961 -0.308610 -9.476580 1.822297 7.007880 14.498555 0.000001 0.000000 0.000000 23.544333 -9.047367 12.520473 16.298240 2.702652 -12.590494 25.887916 -14.296972 15.328531 -0.000000 -0.000001 -0.000003 -27.052957 11.350172 19.673086 -22.461535 -0.386287 -5.173563 -23.211778 3.502697 22.212764 0.000002 -0.000001 0.000001 15.141879 -3.212236 -24.775234 -15.937985 -16.860981 -56.031180 8.831588 -18.639083 -37.639629 0.000006 0.000001 0.000003 -3.068319 -0.676565 34.447690 6.158919 -3.670997 -20.758480 -10.490164 30.219841 6.428636 0.000000 0.000003 0.000000 
110.077850 94.625542 -1.095911 -31.865380 66.326239 20.402690 -2.249223 -0.316647 28.837240 4.226541 4.968918 13.411751 -1.458510 10.656507 -7.724655 2.180286 1.334888 2.292101 -0.000002 -0.000001 -0.000001 -0.061400 -12.210310 9.352459 -6.244611 2.348812 5.003399 -3.716924 -6.333032 14.617713 0.000003 0.000002 -0.000002 -23.226968 26.912496 22.542701 -38.845820 33.161084 35.210421 64.388904 18.668724 36.602096 0.000000 0.000001 -0.000003 31.458287 -10.121306 -57.343051 -1.663636 6.395903 -28.728500 -22.439895 -38.949396 -48.439855 -0.000001 -0.000000 0.000004 4.977769 1.077148 -10.408369 -30.676750 -12.276150 24.829700 -8.073138 1.524721 23.863002 0.000001 -0.000002 0.000002 
110.049446 94.635544 -1.084430 -32.620133 66.571368 20.590843 -2.454877 -0.490422 28.665734 4.295030 5.091210 14.091150 -1.383581 10.289727 -8.404257 2.421568 1.431960 2.790548 0.000001 0.000001 0.000001 -0.098415 -12.291943 9.433517 -6.084969 2.140637 4.875953 -3.326216 -7.077210 15.285340 -0.000000 -0.000003 0.000002 -23.160483 27.002907 22.587938 -38.621762 33.091170 34.973792 63.374170 18.572085 36.566353 -0.000001 0.000000 -0.000002 32.135801 -9.359270 -56.293767 -2.012152 5.729955 -28.790808 -22.052538 -38.698851 -48.550231 0.000000 0.000000 0.000002 5.174583 1.023242 -9.748343 -30.614537 -12.396524 24.705522 -7.796801 1.403863 23.891952 0.000001 -0.000001 0.000001 
110.022766 94.663887 -1.076784 -32.755883 66.471203 21.004645 -2.288761 -0.380436 28.571977 4.316280 5.097395 13.769135 -1.415335 10.452459 -8.155742 2.506373 1.625181 2.813728 0.000003 -0.000001 -0.000001 -0.093974 -12.472418 9.451115 -6.198536 2.249266 4.753449 -2.903993 -7.696354 15.496005 -0.000001 0.000001 -0.000002 -22.621547 27.306777 22.565195 -38.213624 32.910706 34.378975 63.091113 18.450262 36.133278 -0.000002 -0.000001 -0.000002 31.993788 -9.573989 -56.425651 -1.808209 5.952984 -29.241068 -22.143755 -38.729348 -48.564397 0.000003 0.000001 0.000003 5.228699 1.079315 -10.077588 -30.662758 -12.259036 24.324756 -7.996320 1.439743 23.888587 -0.000001 0.000003 -0.000001 
109.984367 94.705299 -1.068811 -32.990907 66.545215 21.757574 -2.370869 -0.501204 27.596257 4.533723 5.350260 13.964772 -1.546335 10.166526 -8.159377 2.706539 2.030323 2.477642 -0.000002 0.000000 0.000002 -0.288585 -12.576082 9.774491 -6.152212 2.283306 5.062967 -2.051532 -7.161701 14.556441 -0.000002 -0.000001 -0.000001 -22.204800 27.515386 22.746895 -37.914780 32.639657 34.419437 62.927503 17.411962 35.339928 -0.000003 0.000000 -0.000000 31.955139 -9.898573 -56.726224 -1.704677 5.910983 -29.115259 -21.504668 -38.324888 -48.183337 0.000002 0.000001 0.000005 5.334597 1.191950 -9.977477 -30.864430 -12.158823 23.916157 -7.977801 1.316815 23.974316 0.000001 0.000001 -0.000002 
109.887672 94.763809 -1.035709 -32.747038 66.590410 21.734268 -2.530980 -0.594587 27.488738 4.970467 5.633807 14.114269 -1.828379 10.160183 -8.317688 3.112590 2.017216 2.488919 0.000001 -0.000000 0.000000 -0.046133 -12.114713 9.202388 -6.693633 1.859182 4.923853 -1.149819 -8.149743 15.205307 -0.000003 0.000000 -0.000000 -21.783702 28.520271 23.214611 -36.356134 32.472191 32.898330 60.846508 16.607007 34.522611 -0.000001 0.000000 -0.000000 31.916026 -9.662126 -56.478278 -1.842015 5.597924 -29.287042 -20.835642 -37.926104 -47.718218 0.000002 -0.000001 -0.000002 5.029081 1.064929 -10.108593 -30.363893 -12.187158 24.533428 -8.205635 1.447497 24.640642 0.000000 0.000004 -0.000003 
109.827721 94.826668 -1.019722 -32.946476 66.801941 21.962516 -2.709980 -0.743162 26.879386 5.024434 5.674184 14.430480 -1.710355 10.468237 -8.260488 3.145810 1.961577 2.351717 0.000000 -0.000000 0.000002 -0.154970 -12.379066 9.321289 -6.649053 1.856765 4.729201 -0.484546 -8.270473 14.926262 -0.000001 -0.000002 0.000001 -21.723765 28.193334 22.751825 -35.476153 32.626178 32.541241 58.867549 16.605764 34.321253 0.000000 -0.000001 0.000000 32.041886 -9.468094 -56.222405 -1.943645 5.199413 -29.252959 -20.229598 -37.508363 -47.550889 0.000007 0.000001 0.000003 5.048005 1.026046 -9.702694 -30.407230 -12.148376 24.299662 -8.128060 1.000083 25.445994 -0.000001 0.000004 -0.000001 
109.783951 94.915771 -1.007251 -33.094363 66.739117 21.302636 -2.784789 -0.772929 26.910641 4.902329 5.379584 13.656239 -1.638182 10.610380 -7.724176 3.638269 1.810910 3.524229 -0.000002 0.000000 -0.000001 -0.555400 -12.588750 9.284907 -6.251133 1.180265 4.497742 0.165183 -9.065448 15.482007 -0.000000 0.000001 -0.000004 -22.048706 28.557222 22.929705 -35.651105 32.364032 31.926210 57.964407 17.284806 34.871732 0.000002 -0.000001 0.000002 32.271691 -8.783116 -55.405839 -2.379093 4.772587 -29.799081 -19.645335 -37.186057 -47.595490 0.000004 0.000000 0.000002 5.066676 0.880363 -8.277424 -29.770725 -12.244650 23.969364 -8.644097 2.024092 25.502086 -0.000003 0.000003 -0.000001 
109.718506 95.015945 -0.991530 -33.150501 67.001840 21.638891 -3.012217 -0.937011 26.188641 4.965874 5.368232 13.226729 -1.702629 10.574014 -7.101309 3.967522 1.755931 3.363943 -0.000002 0.000001 0.000001 -0.721665 -12.273189 8.925842 -6.144174 0.371635 4.840040 0.665758 -8.848587 14.718484 -0.000001 0.000002 -0.000004 -22.064721 28.530732 22.837605 -34.485926 32.549529 31.875366 55.979694 16.599971 34.426790 0.000002 -0.000001 -0.000002 32.306358 -8.796855 -55.525394 -2.802441 4.305141 -29.486538 -19.178900 -36.769845 -47.986040 -0.000002 -0.000001 0.000002 4.931648 0.851750 -7.735661 -29.604448 -12.245996 23.582007 -8.558882 2.223726 25.416327 0.000000 0.000006 -0.000002 
109.655388 95.125107 -0.974707 -33.287207 67.074261 21.583179 -2.914245 -0.870172 26.482213 5.014324 5.457616 13.299063 -1.791511 10.754948 -7.174262 3.910563 1.824185 3.588392 -0.000002 0.000000 -0.000001 -0.967871 -12.119193 9.217133 -5.970111 0.356062 5.398761 1.131779 -8.496550 15.060111 -0.000001 -0.000003 0.000005 -21.787122 28.219693 22.916067 -33.273256 32.276725 32.046694 54.185882 14.577360 33.456937 0.000002 0.000000 -0.000000 32.253294 -8.607857 -55.052213 -2.565772 4.183572 -30.060550 -19.492839 -36.927192 -47.987304 0.000002 0.000002 0.000007 4.997927 0.931824 -7.280606 -30.028490 -11.973516 22.605228 -8.389093 1.707624 25.829653 0.000001 -0.000001 -0.000003 
109.590622 95.243523 -0.963531 -34.551987 67.369079 21.898085 -2.912153 -0.873514 26.081904 5.005215 5.543094 13.651792 -1.657592 11.178277 -7.084384 3.873039 2.012652 4.351575 0.000001 0.000000 0.000001 -0.970023 -12.662211 9.690129 -5.971005 0.538738 5.240354 1.629800 -8.982347 15.096747 -0.000002 -0.000001 -0.000000 -21.838896 27.848252 22.600848 -32.909467 32.267084 31.939027 51.141362 14.166399 32.744931 -0.000003 -0.000001 -0.000001 32.855522 -7.845463 -53.773765 -2.750243 3.507220 -30.115113 -18.691487 -36.401883 -47.726746 -0.000001 0.000001 0.000005 5.183121 0.976791 -6.245252 -29.926730 -11.822217 22.483567 -8.557642 1.449820 26.567911 0.000002 0.000001 -0.000001 
109.515678 95.379730 -0.952476 -35.005689 67.776076 22.050099 -2.903116 -0.888610 25.659899 4.732125 5.308282 12.758744 -1.625229 11.402312 -6.104782 4.318149 2.431219 5.606151 0.000000 0.000000 0.000001 -1.288279 -13.021244 9.974760 -5.880623 0.405567 5.213092 2.214653 -9.685796 15.140491 0.000002 0.000000 -0.000002 -22.690411 28.583152 23.415145 -31.780003 31.533706 30.916964 47.763895 13.693493 31.627744 0.000004 -0.000001 -0.000000 32.776001 -7.776508 -53.257341 -2.798759 3.269401 -30.133586 -18.174654 -36.120643 -47.776886 0.000001 0.000002 0.000007 5.227627 1.119249 -6.541521 -29.917287 -11.844776 22.470658 -9.417197 1.948043 27.290270 -0.000001 0.000006 -0.000004 
109.446854 95.531517 -0.945332 -34.827329 67.829393 21.340528 -2.903835 -0.897167 26.041061 4.599557 5.198457 12.721286 -1.476194 11.559971 -6.101447 4.721009 2.912928 6.263831 0.000004 -0.000000 0.000003 -1.323195 -12.368209 9.918901 -5.970305 -0.040564 5.921106 2.910206 -9.238773 14.960519 -0.000000 -0.000001 -0.000001 -22.811466 28.706882 23.919227 -31.383223 31.233137 31.176590 45.405209 11.983966 30.629655 -0.000003 -0.000001 0.000000 32.535470 -7.581793 -52.848343 -2.637600 3.132392 -30.750789 -18.354868 -36.267020 -47.730243 0.000000 0.000001 0.000003 5.309556 1.108401 -6.873837 -30.172053 -11.806820 22.075334 -9.832013 2.077650 28.069103 0.000002 0.000006 -0.000001 
109.357620 95.712509 -0.934906 -34.046075 67.764690 19.776678 -3.039697 -0.964276 26.384572 4.528785 5.080353 12.527230 -1.354411 11.243919 -5.917441 5.258887 3.263360 8.080196 -0.000002 0.000001 0.000002 -1.960521 -12.436791 10.104707 -5.513714 -0.221729 5.940005 3.557824 -8.971395 14.634331 -0.000002 -0.000002 0.000000 -23.242664 28.996530 24.455781 -33.382666 31.868761 32.663908 44.853214 11.318555 30.618372 0.000002 -0.000001 -0.000002 32.189657 -7.256915 -52.293052 -2.628443 2.842481 -31.431373 -17.878941 -35.961656 -46.871490 0.000004 0.000001 0.000003 5.462755 1.083021 -7.156868 -29.887832 -11.854339 23.272727 -11.403869 2.926583 29.714202 -0.000003 0.000003 0.000001 
109.279694 95.916634 -0.939268 -34.495686 68.327648 20.043892 -3.309210 -1.174424 25.841218 4.658607 5.223597 13.574856 -1.053744 10.848297 -6.639611 5.342468 3.571862 9.446651 0.000002 0.000000 -0.000002 -2.756111 -12.590251 10.649292 -5.022379 0.260887 5.845425 3.918757 -8.479633 15.257621 -0.000000 0.000000 0.000002 -22.485157 29.409572 24.975727 -36.888943 32.054143 34.262582 46.448783 9.259322 30.368889 -0.000003 0.000001 -0.000003 31.771899 -6.671816 -51.784797 -2.723216 2.474892 -32.299087 -16.970471 -35.313239 -45.766103 0.000004 -0.000000 0.000002 6.482769 0.925219 -7.945184 -30.982551 -12.143296 22.858806 -11.204270 1.944673 31.125336 0.000002 -0.000001 0.000001 
109.198608 96.107010 -0.947332 -33.988056 68.504414 19.503766 -3.341055 -1.248038 25.719366 4.828044 5.403212 13.671833 -1.082634 10.915517 -6.318832 5.290996 3.485853 9.940929 -0.000002 0.000001 0.000003 -3.389951 -11.988627 10.888750 -4.823835 0.050909 6.799784 4.044910 -7.321617 15.184457 -0.000000 0.000001 0.000002 -22.531368 29.390447 25.479295 -38.504771 31.847403 35.857810 48.362363 7.084962 29.601927 0.000000 -0.000001 -0.000000 31.226983 -6.858113 -51.797966 -2.823022 2.525387 -32.635081 -16.962539 -35.429889 -44.923602 0.000004 -0.000000 -0.000001 7.101889 0.979767 -9.066268 -31.856064 -12.588378 22.505337 -9.082972 0.407072 30.327201 0.000001 0.000003 -0.000003 
